<?xml version="1.0" encoding="UTF-8"?><svg xmlns="http://www.w3.org/2000/svg" width="100%" height="100%"><line x1="100" y1="150" x2="100" y2="500" stroke="blue" stroke-width="2"/><line x1="100" y1="500" x2="1000" y2="500" stroke="blue" stroke-width="2"/><text strok="blue" x="80" y="140">Température</text><text strok="blue" x="1020" y="500">Ville</text><text strok="blue" x="120" y="520">casablanca</text><rect width="20" height="190" x="120" y="310" stroke="blue" fil="red"><animate attributeName="height" dur="3s" from="0" to="190"/><animate attributeName="y" dur="3s" from="500" to="310"/></rect><text strok="blue" x="120" y="300">19</text><text strok="blue" x="240" y="520">rabat</text><rect width="20" height="180" x="240" y="320" stroke="blue" fil="red"><animate attributeName="height" dur="3s" from="0" to="180"/><animate attributeName="y" dur="3s" from="500" to="320"/></rect><text strok="blue" x="240" y="310">18</text><text strok="blue" x="360" y="520">marrakech</text><rect width="20" height="230" x="360" y="270" stroke="blue" fil="red"><animate attributeName="height" dur="3s" from="0" to="230"/><animate attributeName="y" dur="3s" from="500" to="270"/></rect><text strok="blue" x="360" y="260">23</text><text strok="blue" x="480" y="520">eljadida</text><rect width="20" height="190" x="480" y="310" stroke="blue" fil="red"><animate attributeName="height" dur="3s" from="0" to="190"/><animate attributeName="y" dur="3s" from="500" to="310"/></rect><text strok="blue" x="480" y="300">19</text><text strok="blue" x="600" y="520">tanger</text><rect width="20" height="160" x="600" y="340" stroke="blue" fil="red"><animate attributeName="height" dur="3s" from="0" to="160"/><animate attributeName="y" dur="3s" from="500" to="340"/></rect><text strok="blue" x="600" y="330">16</text><text strok="blue" x="720" y="520">fes</text><rect width="20" height="200" x="720" y="300" stroke="blue" fil="red"><animate attributeName="height" dur="3s" from="0" to="200"/><animate attributeName="y" dur="3s" from="500" to="300"/></rect><text strok="blue" x="720" y="290">20</text><text strok="blue" x="840" y="520">agadir</text><rect width="20" height="240" x="840" y="260" stroke="blue" fil="red"><animate attributeName="height" dur="3s" from="0" to="240"/><animate attributeName="y" dur="3s" from="500" to="260"/></rect><text strok="blue" x="840" y="250">24</text></svg>